{
	"asset":{
		"generator":"Khronos glTF Blender I/O v3.5.30",
		"version":"2.0"
	},
	"extensionsUsed":[
		"KHR_materials_specular",
		"KHR_materials_ior"
	],
	"scene":0,
	"scenes":[
		{
			"name":"Scene",
			"nodes":[
				18,
				19,
				20,
				21
			]
		}
	],
	"nodes":[
		{
			"mesh":0,
			"name":"Bow_Window.001_Starship_0",
			"scale":[
				0.7995565533638,
				0.7995565533638,
				0.7995565533638
			],
			"translation":[
				2.2486352920532227,
				0,
				1.7750164270401
			]
		},
		{
			"children":[
				0
			],
			"name":"Bow_Window.001",
			"rotation":[
				0,
				0,
				0.7071068286895752,
				0.7071067094802856
			],
			"scale":[
				99.99999237060547,
				99.99998474121094,
				100.00001525878906
			],
			"translation":[
				0,
				9.179639164358377e-06,
				-0.0002185078483307734
			]
		},
		{
			"mesh":1,
			"name":"Cabin_WindowInset.001_Starship_0",
			"scale":[
				0.7995565533638,
				0.7995565533638,
				0.7995565533638
			],
			"translation":[
				2.2486352920532227,
				0,
				1.7750164270401
			]
		},
		{
			"children":[
				2
			],
			"name":"Cabin_WindowInset.001",
			"rotation":[
				0,
				0,
				0.7071068286895752,
				0.7071067094802856
			],
			"scale":[
				99.99999237060547,
				99.99998474121094,
				100.00001525878906
			],
			"translation":[
				0,
				9.179639164358377e-06,
				-0.0002185078483307734
			]
		},
		{
			"mesh":2,
			"name":"Cabin_Windows.001_Starship_0",
			"scale":[
				0.7995565533638,
				0.7995565533638,
				0.7995565533638
			],
			"translation":[
				2.2486352920532227,
				0,
				1.7750164270401
			]
		},
		{
			"children":[
				4
			],
			"name":"Cabin_Windows.001",
			"rotation":[
				0,
				0,
				0.7071068286895752,
				0.7071067094802856
			],
			"scale":[
				99.99999237060547,
				99.99998474121094,
				100.00001525878906
			],
			"translation":[
				0,
				9.179639164358377e-06,
				-0.0002185078483307734
			]
		},
		{
			"mesh":3,
			"name":"Cargo Doors.001_Starship_0",
			"scale":[
				0.7995565533638,
				0.7995565533638,
				0.7995565533638
			],
			"translation":[
				2.2486352920532227,
				0,
				1.7750164270401
			]
		},
		{
			"children":[
				6
			],
			"name":"Cargo Doors.001",
			"rotation":[
				0,
				0,
				0.7071068286895752,
				0.7071067094802856
			],
			"scale":[
				99.99999237060547,
				99.99998474121094,
				100.00001525878906
			],
			"translation":[
				0,
				9.179639164358377e-06,
				-0.0002185078483307734
			]
		},
		{
			"mesh":4,
			"name":"Cargo_DropBoxes.001_Starship_0",
			"scale":[
				0.7995564937591553,
				0.7995564937591553,
				0.7995564937591553
			],
			"translation":[
				-1.1243175268173218,
				1.9473739862442017,
				1.775018334388733
			]
		},
		{
			"children":[
				8
			],
			"name":"Cargo_DropBoxes.001",
			"rotation":[
				0,
				0,
				-0.2588191032409668,
				0.9659258127212524
			],
			"scale":[
				100.00000762939453,
				100.00001525878906,
				100.00001525878906
			],
			"translation":[
				-1.1262414455413818,
				-0.2598937749862671,
				-0.0002184398763347417
			]
		},
		{
			"mesh":5,
			"name":"Primary_Hull.001_Starship_0",
			"scale":[
				0.7995565533638,
				0.7995565533638,
				0.7995565533638
			],
			"translation":[
				2.2486352920532227,
				0,
				1.7750164270401
			]
		},
		{
			"children":[
				10
			],
			"name":"Primary_Hull.001",
			"rotation":[
				0,
				0,
				0.7071068286895752,
				0.7071067094802856
			],
			"scale":[
				99.99999237060547,
				99.99998474121094,
				100.00001525878906
			],
			"translation":[
				0,
				9.179639164358377e-06,
				-0.0002185078483307734
			]
		},
		{
			"mesh":6,
			"name":"SeaLev_Raptors_LP.001_Starship_0",
			"scale":[
				0.7995564341545105,
				0.7995564341545105,
				0.7995563745498657
			],
			"translation":[
				3.4313414096832275,
				0,
				2.1719298362731934
			]
		},
		{
			"children":[
				12
			],
			"name":"SeaLev_Raptors_LP.001",
			"rotation":[
				0,
				0,
				0.7071068286895752,
				0.7071067094802856
			],
			"scale":[
				65.5322265625,
				65.5322265625,
				81.7254638671875
			],
			"translation":[
				0,
				1.423311186954379e-05,
				123.1137924194336
			]
		},
		{
			"mesh":7,
			"name":"Vacuum_Raptors_LP.001_Starship_0",
			"scale":[
				0.7995564341545105,
				0.7995564341545105,
				0.7995563745498657
			],
			"translation":[
				-3.4313414096832275,
				0,
				2.1719260215759277
			]
		},
		{
			"children":[
				14
			],
			"name":"Vacuum_Raptors_LP.001",
			"rotation":[
				0,
				0,
				-0.7071069478988647,
				0.7071065902709961
			],
			"scale":[
				65.5322265625,
				65.5322265625,
				81.7254638671875
			],
			"translation":[
				0,
				3.206782275810838e-05,
				-0.0002185078483307734
			]
		},
		{
			"children":[
				1,
				3,
				5,
				7,
				9,
				11,
				13,
				15
			],
			"name":"RootNode",
			"translation":[
				0,
				0,
				-0.0002185078483307734
			]
		},
		{
			"children":[
				16
			],
			"name":"8cfb5ceb1b7344fd94f86c72a22ca1e8.fbx",
			"rotation":[
				-1,
				0,
				0,
				2.1316282072803006e-14
			],
			"translation":[
				0,
				0,
				0.0002185078483307734
			]
		},
		{
			"children":[
				17
			],
			"name":"Sketchfab_model",
			"rotation":[
				0.70710688829422,
				0,
				0,
				0.7071066498756409
			],
			"scale":[
				0.8633468747138977,
				0.8633468151092529,
				1
			],
			"translation":[
				-0.0001048743724822998,
				-2256.80224609375,
				84.61163330078125
			]
		},
		{
			"mesh":8,
			"name":"Vacuum_Raptors_LP.001_Starship_0.001",
			"rotation":[
				-0.5000001788139343,
				0.4999999403953552,
				0.4999998211860657,
				0.5000000596046448
			],
			"scale":[
				142.17019653320312,
				142.1702117919922,
				131.0377197265625
			],
			"translation":[
				-0.00010487438703421503,
				-4208.109375,
				-2277.19970703125
			]
		},
		{
			"mesh":9,
			"name":"Vacuum_Raptors_LP.001_Starship_0.002",
			"rotation":[
				-0.4999998211860657,
				-0.5000000596046448,
				-0.5000001788139343,
				0.4999999403953552
			],
			"scale":[
				142.17019653320312,
				142.1702117919922,
				108.07868957519531
			],
			"translation":[
				-0.00010487438703421503,
				-3647.976318359375,
				438.980224609375
			]
		},
		{
			"mesh":10,
			"name":"Vacuum_Raptors_LP.001_Starship_0.003",
			"rotation":[
				-0.4999998211860657,
				-0.5000000596046448,
				-0.5000001788139343,
				0.4999999403953552
			],
			"scale":[
				142.17019653320312,
				142.1702117919922,
				108.07868957519531
			],
			"translation":[
				-0.00010487438703421503,
				-3647.976318359375,
				438.980224609375
			]
		}
	],
	"materials":[
		{
			"doubleSided":true,
			"emissiveFactor":[
				1,
				1,
				1
			],
			"emissiveTexture":{
				"index":0
			},
			"name":"Starship",
			"normalTexture":{
				"index":1
			},
			"pbrMetallicRoughness":{
				"baseColorTexture":{
					"index":2
				},
				"metallicRoughnessTexture":{
					"index":3
				}
			}
		},
		{
			"doubleSided":true,
			"extensions":{
				"KHR_materials_specular":{
					"specularColorFactor":[
						2.371357614441398,
						2.371357614441398,
						2.371357614441398
					]
				},
				"KHR_materials_ior":{
					"ior":1.4500000476837158
				}
			},
			"name":"Material.002",
			"pbrMetallicRoughness":{
				"baseColorFactor":[
					0.5925760269165039,
					0.16829313337802887,
					0,
					1
				],
				"roughnessFactor":0.18110236525535583
			}
		},
		{
			"doubleSided":true,
			"extensions":{
				"KHR_materials_specular":{
					"specularColorFactor":[
						2.371357614441398,
						2.371357614441398,
						2.371357614441398
					]
				},
				"KHR_materials_ior":{
					"ior":1.4500000476837158
				}
			},
			"name":"Material.004",
			"pbrMetallicRoughness":{
				"baseColorFactor":[
					0.06371544301509857,
					0.020579326897859573,
					0,
					1
				],
				"metallicFactor":0.7401574850082397,
				"roughnessFactor":0.18897637724876404
			}
		},
		{
			"doubleSided":true,
			"extensions":{
				"KHR_materials_specular":{
					"specularColorFactor":[
						2.100612047794284,
						2.100612047794284,
						2.100612047794284
					]
				},
				"KHR_materials_ior":{
					"ior":1.4500000476837158
				}
			},
			"name":"Material.003",
			"pbrMetallicRoughness":{
				"baseColorFactor":[
					0.16264118254184723,
					0.16161732375621796,
					0.14645805954933167,
					1
				],
				"metallicFactor":0.9212598204612732,
				"roughnessFactor":0.07874015718698502
			}
		},
		{
			"doubleSided":true,
			"extensions":{
				"KHR_materials_specular":{
					"specularColorFactor":[
						2.3433494669962407,
						2.3433494669962407,
						2.3433494669962407
					]
				},
				"KHR_materials_ior":{
					"ior":1.4500000476837158
				}
			},
			"name":"Material.001",
			"pbrMetallicRoughness":{
				"metallicFactor":0.8359375,
				"roughnessFactor":0.25196850299835205
			}
		}
	],
	"meshes":[
		{
			"name":"Bow_Window.001_Starship_0",
			"primitives":[
				{
					"attributes":{
						"POSITION":0,
						"TEXCOORD_0":1,
						"NORMAL":2
					},
					"indices":3,
					"material":0
				}
			]
		},
		{
			"name":"Cabin_WindowInset.001_Starship_0",
			"primitives":[
				{
					"attributes":{
						"POSITION":4,
						"TEXCOORD_0":5,
						"NORMAL":6
					},
					"indices":7,
					"material":0
				}
			]
		},
		{
			"name":"Cabin_Windows.001_Starship_0",
			"primitives":[
				{
					"attributes":{
						"POSITION":8,
						"TEXCOORD_0":9,
						"NORMAL":10
					},
					"indices":11,
					"material":0
				}
			]
		},
		{
			"name":"Cargo Doors.001_Starship_0",
			"primitives":[
				{
					"attributes":{
						"POSITION":12,
						"TEXCOORD_0":13,
						"NORMAL":14
					},
					"indices":15,
					"material":0
				}
			]
		},
		{
			"name":"Cargo_DropBoxes.001_Starship_0",
			"primitives":[
				{
					"attributes":{
						"POSITION":16,
						"TEXCOORD_0":17,
						"NORMAL":18
					},
					"indices":19,
					"material":0
				}
			]
		},
		{
			"name":"Primary_Hull.001_Starship_0",
			"primitives":[
				{
					"attributes":{
						"POSITION":20,
						"TEXCOORD_0":21,
						"NORMAL":22
					},
					"indices":23,
					"material":0
				}
			]
		},
		{
			"name":"SeaLev_Raptors_LP.001_Starship_0",
			"primitives":[
				{
					"attributes":{
						"POSITION":24,
						"TEXCOORD_0":25,
						"NORMAL":26
					},
					"indices":27,
					"material":0
				}
			]
		},
		{
			"name":"Vacuum_Raptors_LP.001_Starship_0",
			"primitives":[
				{
					"attributes":{
						"POSITION":28,
						"TEXCOORD_0":29,
						"NORMAL":30
					},
					"indices":31,
					"material":0
				}
			]
		},
		{
			"name":"Vacuum_Raptors_LP.001_Starship_0.001",
			"primitives":[
				{
					"attributes":{
						"POSITION":32,
						"TEXCOORD_0":33,
						"NORMAL":34
					},
					"indices":35,
					"material":1
				},
				{
					"attributes":{
						"POSITION":36,
						"TEXCOORD_0":37,
						"NORMAL":38
					},
					"indices":39,
					"material":2
				}
			]
		},
		{
			"name":"Vacuum_Raptors_LP.001_Starship_0.002",
			"primitives":[
				{
					"attributes":{
						"POSITION":40,
						"TEXCOORD_0":41,
						"NORMAL":42
					},
					"indices":43,
					"material":3
				}
			]
		},
		{
			"name":"Vacuum_Raptors_LP.001_Starship_0.003",
			"primitives":[
				{
					"attributes":{
						"POSITION":44,
						"TEXCOORD_0":45,
						"NORMAL":46
					},
					"indices":47,
					"material":4
				}
			]
		}
	],
	"textures":[
		{
			"sampler":0,
			"source":0
		},
		{
			"sampler":0,
			"source":1
		},
		{
			"sampler":0,
			"source":2
		},
		{
			"sampler":0,
			"source":3
		}
	],
	"images":[
		{
			"mimeType":"image/png",
			"name":"Starship_emissive",
			"uri":"Starship_emissive.png"
		},
		{
			"mimeType":"image/png",
			"name":"Starship_normal",
			"uri":"Starship_normal.png"
		},
		{
			"mimeType":"image/png",
			"name":"Starship_baseColor",
			"uri":"Starship_baseColor.png"
		},
		{
			"mimeType":"image/png",
			"name":"Starship_metallicRoughness",
			"uri":"Starship_metallicRoughness.png"
		}
	],
	"accessors":[
		{
			"bufferView":0,
			"componentType":5126,
			"count":277,
			"max":[
				-0.4859102666378021,
				1.8217805624008179,
				52.162811279296875
			],
			"min":[
				-1.986427664756775,
				-1.8219566345214844,
				49.08134460449219
			],
			"type":"VEC3"
		},
		{
			"bufferView":1,
			"componentType":5126,
			"count":277,
			"type":"VEC2"
		},
		{
			"bufferView":2,
			"componentType":5126,
			"count":277,
			"type":"VEC3"
		},
		{
			"bufferView":3,
			"componentType":5123,
			"count":1272,
			"type":"SCALAR"
		},
		{
			"bufferView":4,
			"componentType":5126,
			"count":4552,
			"max":[
				-0.5204951167106628,
				4.1584882736206055,
				48.73628616333008
			],
			"min":[
				-4.260077953338623,
				-4.1447906494140625,
				42.338592529296875
			],
			"type":"VEC3"
		},
		{
			"bufferView":5,
			"componentType":5126,
			"count":4552,
			"type":"VEC2"
		},
		{
			"bufferView":6,
			"componentType":5126,
			"count":4552,
			"type":"VEC3"
		},
		{
			"bufferView":7,
			"componentType":5123,
			"count":11580,
			"type":"SCALAR"
		},
		{
			"bufferView":8,
			"componentType":5126,
			"count":796,
			"max":[
				-0.8141384124755859,
				3.8407998085021973,
				48.71034240722656
			],
			"min":[
				-4.201743125915527,
				-3.832899808883667,
				42.43484115600586
			],
			"type":"VEC3"
		},
		{
			"bufferView":9,
			"componentType":5126,
			"count":796,
			"type":"VEC2"
		},
		{
			"bufferView":10,
			"componentType":5126,
			"count":796,
			"type":"VEC3"
		},
		{
			"bufferView":11,
			"componentType":5123,
			"count":1548,
			"type":"SCALAR"
		},
		{
			"bufferView":12,
			"componentType":5126,
			"count":222,
			"max":[
				-0.8914583921432495,
				5.3792243003845215,
				40.04058074951172
			],
			"min":[
				-4.289340496063232,
				-5.379223823547363,
				36.043643951416016
			],
			"type":"VEC3"
		},
		{
			"bufferView":13,
			"componentType":5126,
			"count":222,
			"type":"VEC2"
		},
		{
			"bufferView":14,
			"componentType":5126,
			"count":222,
			"type":"VEC3"
		},
		{
			"bufferView":15,
			"componentType":5123,
			"count":1032,
			"type":"SCALAR"
		},
		{
			"bufferView":16,
			"componentType":5126,
			"count":204,
			"max":[
				4.24324893951416,
				4.2018961906433105,
				4.6923441886901855
			],
			"min":[
				-3.3190054893493652,
				-4.186131954193115,
				0.05173207074403763
			],
			"type":"VEC3"
		},
		{
			"bufferView":17,
			"componentType":5126,
			"count":204,
			"type":"VEC2"
		},
		{
			"bufferView":18,
			"componentType":5126,
			"count":204,
			"type":"VEC3"
		},
		{
			"bufferView":19,
			"componentType":5123,
			"count":720,
			"type":"SCALAR"
		},
		{
			"bufferView":20,
			"componentType":5126,
			"count":4260,
			"max":[
				5.557954788208008,
				9.997482299804688,
				52.4842643737793
			],
			"min":[
				-5.557952880859375,
				-9.997482299804688,
				-0.1233745813369751
			],
			"type":"VEC3"
		},
		{
			"bufferView":21,
			"componentType":5126,
			"count":4260,
			"type":"VEC2"
		},
		{
			"bufferView":22,
			"componentType":5126,
			"count":4260,
			"type":"VEC3"
		},
		{
			"bufferView":23,
			"componentType":5123,
			"count":18450,
			"type":"SCALAR"
		},
		{
			"bufferView":24,
			"componentType":5126,
			"count":3114,
			"max":[
				2.5177059173583984,
				2.305816888809204,
				2.310336112976074
			],
			"min":[
				-1.7502977848052979,
				-2.305816888809204,
				-1.46878182888031
			],
			"type":"VEC3"
		},
		{
			"bufferView":25,
			"componentType":5126,
			"count":3114,
			"type":"VEC2"
		},
		{
			"bufferView":26,
			"componentType":5126,
			"count":3114,
			"type":"VEC3"
		},
		{
			"bufferView":27,
			"componentType":5123,
			"count":13356,
			"type":"SCALAR"
		},
		{
			"bufferView":28,
			"componentType":5126,
			"count":3280,
			"max":[
				6.414158821105957,
				5.782339572906494,
				5.66167688369751
			],
			"min":[
				-4.098579406738281,
				-5.782341003417969,
				0.04759668931365013
			],
			"type":"VEC3"
		},
		{
			"bufferView":29,
			"componentType":5126,
			"count":3280,
			"type":"VEC2"
		},
		{
			"bufferView":30,
			"componentType":5126,
			"count":3280,
			"type":"VEC3"
		},
		{
			"bufferView":31,
			"componentType":5123,
			"count":13932,
			"type":"SCALAR"
		},
		{
			"bufferView":32,
			"componentType":5126,
			"count":186,
			"max":[
				-4.831337928771973,
				8.6541748046875,
				51.783729553222656
			],
			"min":[
				-14.039704322814941,
				-8.657413482666016,
				16.498882293701172
			],
			"type":"VEC3"
		},
		{
			"bufferView":33,
			"componentType":5126,
			"count":186,
			"type":"VEC2"
		},
		{
			"bufferView":34,
			"componentType":5126,
			"count":186,
			"type":"VEC3"
		},
		{
			"bufferView":35,
			"componentType":5123,
			"count":816,
			"type":"SCALAR"
		},
		{
			"bufferView":36,
			"componentType":5126,
			"count":262,
			"max":[
				-5.285243511199951,
				8.21208667755127,
				53.226600646972656
			],
			"min":[
				-13.596589088439941,
				-8.21745491027832,
				45.75693130493164
			],
			"type":"VEC3"
		},
		{
			"bufferView":37,
			"componentType":5126,
			"count":262,
			"type":"VEC2"
		},
		{
			"bufferView":38,
			"componentType":5126,
			"count":262,
			"type":"VEC3"
		},
		{
			"bufferView":39,
			"componentType":5123,
			"count":1104,
			"type":"SCALAR"
		},
		{
			"bufferView":40,
			"componentType":5126,
			"count":306,
			"max":[
				-6.448626518249512,
				6.978482246398926,
				16.976091384887695
			],
			"min":[
				-12.376381874084473,
				-6.978482246398926,
				10.115849494934082
			],
			"type":"VEC3"
		},
		{
			"bufferView":41,
			"componentType":5126,
			"count":306,
			"type":"VEC2"
		},
		{
			"bufferView":42,
			"componentType":5126,
			"count":306,
			"type":"VEC3"
		},
		{
			"bufferView":43,
			"componentType":5123,
			"count":1536,
			"type":"SCALAR"
		},
		{
			"bufferView":44,
			"componentType":5126,
			"count":2064,
			"max":[
				-7.596201419830322,
				5.782336235046387,
				12.881701469421387
			],
			"min":[
				-11.193238258361816,
				-5.782344341278076,
				7.267622947692871
			],
			"type":"VEC3"
		},
		{
			"bufferView":45,
			"componentType":5126,
			"count":2064,
			"type":"VEC2"
		},
		{
			"bufferView":46,
			"componentType":5126,
			"count":2064,
			"type":"VEC3"
		},
		{
			"bufferView":47,
			"componentType":5123,
			"count":8064,
			"type":"SCALAR"
		}
	],
	"bufferViews":[
		{
			"buffer":0,
			"byteLength":3324,
			"byteOffset":0,
			"target":34962
		},
		{
			"buffer":0,
			"byteLength":2216,
			"byteOffset":3324,
			"target":34962
		},
		{
			"buffer":0,
			"byteLength":3324,
			"byteOffset":5540,
			"target":34962
		},
		{
			"buffer":0,
			"byteLength":2544,
			"byteOffset":8864,
			"target":34963
		},
		{
			"buffer":0,
			"byteLength":54624,
			"byteOffset":11408,
			"target":34962
		},
		{
			"buffer":0,
			"byteLength":36416,
			"byteOffset":66032,
			"target":34962
		},
		{
			"buffer":0,
			"byteLength":54624,
			"byteOffset":102448,
			"target":34962
		},
		{
			"buffer":0,
			"byteLength":23160,
			"byteOffset":157072,
			"target":34963
		},
		{
			"buffer":0,
			"byteLength":9552,
			"byteOffset":180232,
			"target":34962
		},
		{
			"buffer":0,
			"byteLength":6368,
			"byteOffset":189784,
			"target":34962
		},
		{
			"buffer":0,
			"byteLength":9552,
			"byteOffset":196152,
			"target":34962
		},
		{
			"buffer":0,
			"byteLength":3096,
			"byteOffset":205704,
			"target":34963
		},
		{
			"buffer":0,
			"byteLength":2664,
			"byteOffset":208800,
			"target":34962
		},
		{
			"buffer":0,
			"byteLength":1776,
			"byteOffset":211464,
			"target":34962
		},
		{
			"buffer":0,
			"byteLength":2664,
			"byteOffset":213240,
			"target":34962
		},
		{
			"buffer":0,
			"byteLength":2064,
			"byteOffset":215904,
			"target":34963
		},
		{
			"buffer":0,
			"byteLength":2448,
			"byteOffset":217968,
			"target":34962
		},
		{
			"buffer":0,
			"byteLength":1632,
			"byteOffset":220416,
			"target":34962
		},
		{
			"buffer":0,
			"byteLength":2448,
			"byteOffset":222048,
			"target":34962
		},
		{
			"buffer":0,
			"byteLength":1440,
			"byteOffset":224496,
			"target":34963
		},
		{
			"buffer":0,
			"byteLength":51120,
			"byteOffset":225936,
			"target":34962
		},
		{
			"buffer":0,
			"byteLength":34080,
			"byteOffset":277056,
			"target":34962
		},
		{
			"buffer":0,
			"byteLength":51120,
			"byteOffset":311136,
			"target":34962
		},
		{
			"buffer":0,
			"byteLength":36900,
			"byteOffset":362256,
			"target":34963
		},
		{
			"buffer":0,
			"byteLength":37368,
			"byteOffset":399156,
			"target":34962
		},
		{
			"buffer":0,
			"byteLength":24912,
			"byteOffset":436524,
			"target":34962
		},
		{
			"buffer":0,
			"byteLength":37368,
			"byteOffset":461436,
			"target":34962
		},
		{
			"buffer":0,
			"byteLength":26712,
			"byteOffset":498804,
			"target":34963
		},
		{
			"buffer":0,
			"byteLength":39360,
			"byteOffset":525516,
			"target":34962
		},
		{
			"buffer":0,
			"byteLength":26240,
			"byteOffset":564876,
			"target":34962
		},
		{
			"buffer":0,
			"byteLength":39360,
			"byteOffset":591116,
			"target":34962
		},
		{
			"buffer":0,
			"byteLength":27864,
			"byteOffset":630476,
			"target":34963
		},
		{
			"buffer":0,
			"byteLength":2232,
			"byteOffset":658340,
			"target":34962
		},
		{
			"buffer":0,
			"byteLength":1488,
			"byteOffset":660572,
			"target":34962
		},
		{
			"buffer":0,
			"byteLength":2232,
			"byteOffset":662060,
			"target":34962
		},
		{
			"buffer":0,
			"byteLength":1632,
			"byteOffset":664292,
			"target":34963
		},
		{
			"buffer":0,
			"byteLength":3144,
			"byteOffset":665924,
			"target":34962
		},
		{
			"buffer":0,
			"byteLength":2096,
			"byteOffset":669068,
			"target":34962
		},
		{
			"buffer":0,
			"byteLength":3144,
			"byteOffset":671164,
			"target":34962
		},
		{
			"buffer":0,
			"byteLength":2208,
			"byteOffset":674308,
			"target":34963
		},
		{
			"buffer":0,
			"byteLength":3672,
			"byteOffset":676516,
			"target":34962
		},
		{
			"buffer":0,
			"byteLength":2448,
			"byteOffset":680188,
			"target":34962
		},
		{
			"buffer":0,
			"byteLength":3672,
			"byteOffset":682636,
			"target":34962
		},
		{
			"buffer":0,
			"byteLength":3072,
			"byteOffset":686308,
			"target":34963
		},
		{
			"buffer":0,
			"byteLength":24768,
			"byteOffset":689380,
			"target":34962
		},
		{
			"buffer":0,
			"byteLength":16512,
			"byteOffset":714148,
			"target":34962
		},
		{
			"buffer":0,
			"byteLength":24768,
			"byteOffset":730660,
			"target":34962
		},
		{
			"buffer":0,
			"byteLength":16128,
			"byteOffset":755428,
			"target":34963
		}
	],
	"samplers":[
		{
			"magFilter":9729,
			"minFilter":9987
		}
	],
	"buffers":[
		{
			"byteLength":771556,
			"uri":"allegro.bin"
		}
	]
}
