{
	"asset":{
		"generator":"Khronos glTF Blender I/O v3.5.30",
		"version":"2.0"
	},
	"scene":0,
	"scenes":[
		{
			"name":"Scene",
			"nodes":[
				18
			]
		}
	],
	"nodes":[
		{
			"mesh":0,
			"name":"Bow_Window.001_Starship_0"
		},
		{
			"children":[
				0
			],
			"name":"Bow_Window.001",
			"rotation":[
				0,
				0,
				0.7071068286895752,
				0.7071067094802856
			],
			"scale":[
				99.99999237060547,
				99.9999771118164,
				100.00001525878906
			],
			"translation":[
				0,
				1.2803415302187204e-05,
				-0.0005011190078221262
			]
		},
		{
			"mesh":1,
			"name":"Cabin_WindowInset.001_Starship_0"
		},
		{
			"children":[
				2
			],
			"name":"Cabin_WindowInset.001",
			"rotation":[
				0,
				0,
				0.7071068286895752,
				0.7071067094802856
			],
			"scale":[
				99.99999237060547,
				99.9999771118164,
				100.00001525878906
			],
			"translation":[
				0,
				1.2803415302187204e-05,
				-0.0005011190078221262
			]
		},
		{
			"mesh":2,
			"name":"Cabin_Windows.001_Starship_0"
		},
		{
			"children":[
				4
			],
			"name":"Cabin_Windows.001",
			"rotation":[
				0,
				0,
				0.7071068286895752,
				0.7071067094802856
			],
			"scale":[
				99.99999237060547,
				99.9999771118164,
				100.00001525878906
			],
			"translation":[
				0,
				1.2803415302187204e-05,
				-0.0005011190078221262
			]
		},
		{
			"mesh":3,
			"name":"Cargo Doors.001_Starship_0"
		},
		{
			"children":[
				6
			],
			"name":"Cargo Doors.001",
			"rotation":[
				0,
				0,
				0.7071068286895752,
				0.7071067094802856
			],
			"scale":[
				99.99999237060547,
				99.9999771118164,
				100.00001525878906
			],
			"translation":[
				0,
				1.2803415302187204e-05,
				-0.0005011190078221262
			]
		},
		{
			"mesh":4,
			"name":"Cargo_DropBoxes.001_Starship_0"
		},
		{
			"children":[
				8
			],
			"name":"Cargo_DropBoxes.001",
			"rotation":[
				0,
				0,
				-0.2588191628456116,
				0.9659258723258972
			],
			"scale":[
				100.00000762939453,
				100.00000762939453,
				100.00001525878906
			],
			"translation":[
				-1.1262414455413818,
				-0.25988632440567017,
				-0.0005010402528569102
			]
		},
		{
			"mesh":5,
			"name":"Primary_Hull.001_Starship_0"
		},
		{
			"children":[
				10
			],
			"name":"Primary_Hull.001",
			"rotation":[
				0,
				0,
				0.7071068286895752,
				0.7071067094802856
			],
			"scale":[
				99.99999237060547,
				99.9999771118164,
				100.00001525878906
			],
			"translation":[
				0,
				1.2803415302187204e-05,
				-0.0005011190078221262
			]
		},
		{
			"mesh":6,
			"name":"SeaLev_Raptors_LP.001_Starship_0"
		},
		{
			"children":[
				12
			],
			"name":"SeaLev_Raptors_LP.001",
			"rotation":[
				0,
				0,
				0.7071068286895752,
				0.7071067094802856
			],
			"scale":[
				65.5322265625,
				65.5322265625,
				81.7254638671875
			],
			"translation":[
				0,
				1.9582745153456926e-05,
				123.11351013183594
			]
		},
		{
			"mesh":7,
			"name":"Vacuum_Raptors_LP.001_Starship_0",
			"translation":[
				0,
				0,
				-2.0644326923502376e-06
			]
		},
		{
			"children":[
				14
			],
			"name":"Vacuum_Raptors_LP.001",
			"rotation":[
				0,
				0,
				-0.7071069478988647,
				0.7071065902709961
			],
			"scale":[
				65.5322265625,
				65.5322265625,
				81.7254638671875
			],
			"translation":[
				0,
				3.5691598895937204e-05,
				-0.0005011190078221262
			]
		},
		{
			"children":[
				1,
				3,
				5,
				7,
				9,
				11,
				13,
				15
			],
			"name":"RootNode",
			"translation":[
				0,
				1.2803473509848118e-05,
				-0.0005011190078221262
			]
		},
		{
			"children":[
				16
			],
			"name":"8cfb5ceb1b7344fd94f86c72a22ca1e8.fbx",
			"rotation":[
				-1,
				0,
				0,
				2.842170943040401e-14
			],
			"translation":[
				0,
				-1.2803589925169945e-05,
				0.0005011190078221262
			]
		},
		{
			"children":[
				17
			],
			"name":"Sketchfab_model",
			"rotation":[
				0.70710688829422,
				0,
				0,
				0.7071066498756409
			],
			"translation":[
				-8.913898636819795e-05,
				-2476.134521484375,
				-42.37635040283203
			]
		}
	],
	"materials":[
		{
			"doubleSided":true,
			"emissiveFactor":[
				1,
				1,
				1
			],
			"emissiveTexture":{
				"index":0
			},
			"name":"Starship",
			"normalTexture":{
				"index":1
			},
			"pbrMetallicRoughness":{
				"baseColorTexture":{
					"index":2
				},
				"metallicRoughnessTexture":{
					"index":3
				}
			}
		}
	],
	"meshes":[
		{
			"name":"Bow_Window.001_Starship_0",
			"primitives":[
				{
					"attributes":{
						"POSITION":0,
						"TEXCOORD_0":1,
						"NORMAL":2
					},
					"indices":3,
					"material":0
				}
			]
		},
		{
			"name":"Cabin_WindowInset.001_Starship_0",
			"primitives":[
				{
					"attributes":{
						"POSITION":4,
						"TEXCOORD_0":5,
						"NORMAL":6
					},
					"indices":7,
					"material":0
				}
			]
		},
		{
			"name":"Cabin_Windows.001_Starship_0",
			"primitives":[
				{
					"attributes":{
						"POSITION":8,
						"TEXCOORD_0":9,
						"NORMAL":10
					},
					"indices":11,
					"material":0
				}
			]
		},
		{
			"name":"Cargo Doors.001_Starship_0",
			"primitives":[
				{
					"attributes":{
						"POSITION":12,
						"TEXCOORD_0":13,
						"NORMAL":14
					},
					"indices":15,
					"material":0
				}
			]
		},
		{
			"name":"Cargo_DropBoxes.001_Starship_0",
			"primitives":[
				{
					"attributes":{
						"POSITION":16,
						"TEXCOORD_0":17,
						"NORMAL":18
					},
					"indices":19,
					"material":0
				}
			]
		},
		{
			"name":"Primary_Hull.001_Starship_0",
			"primitives":[
				{
					"attributes":{
						"POSITION":20,
						"TEXCOORD_0":21,
						"NORMAL":22
					},
					"indices":23,
					"material":0
				}
			]
		},
		{
			"name":"SeaLev_Raptors_LP.001_Starship_0",
			"primitives":[
				{
					"attributes":{
						"POSITION":24,
						"TEXCOORD_0":25,
						"NORMAL":26
					},
					"indices":27,
					"material":0
				}
			]
		},
		{
			"name":"Vacuum_Raptors_LP.001_Starship_0",
			"primitives":[
				{
					"attributes":{
						"POSITION":28,
						"TEXCOORD_0":29,
						"NORMAL":30
					},
					"indices":31,
					"material":0
				}
			]
		}
	],
	"textures":[
		{
			"sampler":0,
			"source":0
		},
		{
			"sampler":0,
			"source":1
		},
		{
			"sampler":0,
			"source":2
		},
		{
			"sampler":0,
			"source":3
		}
	],
	"images":[
		{
			"mimeType":"image/png",
			"name":"Starship_emissive",
			"uri":"Starship_emissive.png"
		},
		{
			"mimeType":"image/png",
			"name":"Starship_normal",
			"uri":"Starship_normal.png"
		},
		{
			"mimeType":"image/png",
			"name":"Starship_baseColor",
			"uri":"Starship_baseColor.png"
		},
		{
			"mimeType":"image/png",
			"name":"Starship_metallicRoughness",
			"uri":"Starship_metallicRoughness.png"
		}
	],
	"accessors":[
		{
			"bufferView":0,
			"componentType":5126,
			"count":277,
			"max":[
				-0.9046930074691772,
				2.7080283164978027,
				59.734046936035156
			],
			"min":[
				-3.1364572048187256,
				-2.711409568786621,
				53.46588134765625
			],
			"type":"VEC3"
		},
		{
			"bufferView":1,
			"componentType":5126,
			"count":277,
			"type":"VEC2"
		},
		{
			"bufferView":2,
			"componentType":5126,
			"count":277,
			"type":"VEC3"
		},
		{
			"bufferView":3,
			"componentType":5123,
			"count":1272,
			"type":"SCALAR"
		},
		{
			"bufferView":4,
			"componentType":5126,
			"count":4540,
			"max":[
				-0.9478509426116943,
				3.8612637519836426,
				52.76399230957031
			],
			"min":[
				-4.2153143882751465,
				-3.8643829822540283,
				45.879173278808594
			],
			"type":"VEC3"
		},
		{
			"bufferView":5,
			"componentType":5126,
			"count":4540,
			"type":"VEC2"
		},
		{
			"bufferView":6,
			"componentType":5126,
			"count":4540,
			"type":"VEC3"
		},
		{
			"bufferView":7,
			"componentType":5123,
			"count":11580,
			"type":"SCALAR"
		},
		{
			"bufferView":8,
			"componentType":5126,
			"count":789,
			"max":[
				-1.384786605834961,
				3.570669651031494,
				52.71121597290039
			],
			"min":[
				-4.1726393699646,
				-3.573789119720459,
				45.91602325439453
			],
			"type":"VEC3"
		},
		{
			"bufferView":9,
			"componentType":5126,
			"count":789,
			"type":"VEC2"
		},
		{
			"bufferView":10,
			"componentType":5126,
			"count":789,
			"type":"VEC3"
		},
		{
			"bufferView":11,
			"componentType":5123,
			"count":1548,
			"type":"SCALAR"
		},
		{
			"bufferView":12,
			"componentType":5126,
			"count":222,
			"max":[
				-0.8249907493591309,
				3.8775386810302734,
				44.38323974609375
			],
			"min":[
				-3.36251163482666,
				-3.880657911300659,
				32.828704833984375
			],
			"type":"VEC3"
		},
		{
			"bufferView":13,
			"componentType":5126,
			"count":222,
			"type":"VEC2"
		},
		{
			"bufferView":14,
			"componentType":5126,
			"count":222,
			"type":"VEC3"
		},
		{
			"bufferView":15,
			"componentType":5123,
			"count":1032,
			"type":"SCALAR"
		},
		{
			"bufferView":16,
			"componentType":5126,
			"count":204,
			"max":[
				5.747859477996826,
				5.699568271636963,
				5.463705062866211
			],
			"min":[
				-4.506475925445557,
				-5.674508571624756,
				-0.8289146423339844
			],
			"type":"VEC3"
		},
		{
			"bufferView":17,
			"componentType":5126,
			"count":204,
			"type":"VEC2"
		},
		{
			"bufferView":18,
			"componentType":5126,
			"count":204,
			"type":"VEC3"
		},
		{
			"bufferView":19,
			"componentType":5123,
			"count":720,
			"type":"SCALAR"
		},
		{
			"bufferView":20,
			"componentType":5126,
			"count":4173,
			"max":[
				6.213659763336182,
				13.556693077087402,
				60.387935638427734
			],
			"min":[
				-6.736110687255859,
				-13.55626392364502,
				-1.066357135772705
			],
			"type":"VEC3"
		},
		{
			"bufferView":21,
			"componentType":5126,
			"count":4173,
			"type":"VEC2"
		},
		{
			"bufferView":22,
			"componentType":5126,
			"count":4173,
			"type":"VEC3"
		},
		{
			"bufferView":23,
			"componentType":5123,
			"count":18450,
			"type":"SCALAR"
		},
		{
			"bufferView":24,
			"componentType":5126,
			"count":3114,
			"max":[
				3.4223601818084717,
				3.1269900798797607,
				2.5689644813537598
			],
			"min":[
				-2.365007162094116,
				-3.126335620880127,
				-2.555479049682617
			],
			"type":"VEC3"
		},
		{
			"bufferView":25,
			"componentType":5126,
			"count":3114,
			"type":"VEC2"
		},
		{
			"bufferView":26,
			"componentType":5126,
			"count":3114,
			"type":"VEC3"
		},
		{
			"bufferView":27,
			"componentType":5123,
			"count":13356,
			"type":"SCALAR"
		},
		{
			"bufferView":28,
			"componentType":5126,
			"count":3280,
			"max":[
				8.689153671264648,
				7.840463161468506,
				6.577071189880371
			],
			"min":[
				-5.5660080909729,
				-7.841119289398193,
				-1.0355615615844727
			],
			"type":"VEC3"
		},
		{
			"bufferView":29,
			"componentType":5126,
			"count":3280,
			"type":"VEC2"
		},
		{
			"bufferView":30,
			"componentType":5126,
			"count":3280,
			"type":"VEC3"
		},
		{
			"bufferView":31,
			"componentType":5123,
			"count":13932,
			"type":"SCALAR"
		}
	],
	"bufferViews":[
		{
			"buffer":0,
			"byteLength":3324,
			"byteOffset":0,
			"target":34962
		},
		{
			"buffer":0,
			"byteLength":2216,
			"byteOffset":3324,
			"target":34962
		},
		{
			"buffer":0,
			"byteLength":3324,
			"byteOffset":5540,
			"target":34962
		},
		{
			"buffer":0,
			"byteLength":2544,
			"byteOffset":8864,
			"target":34963
		},
		{
			"buffer":0,
			"byteLength":54480,
			"byteOffset":11408,
			"target":34962
		},
		{
			"buffer":0,
			"byteLength":36320,
			"byteOffset":65888,
			"target":34962
		},
		{
			"buffer":0,
			"byteLength":54480,
			"byteOffset":102208,
			"target":34962
		},
		{
			"buffer":0,
			"byteLength":23160,
			"byteOffset":156688,
			"target":34963
		},
		{
			"buffer":0,
			"byteLength":9468,
			"byteOffset":179848,
			"target":34962
		},
		{
			"buffer":0,
			"byteLength":6312,
			"byteOffset":189316,
			"target":34962
		},
		{
			"buffer":0,
			"byteLength":9468,
			"byteOffset":195628,
			"target":34962
		},
		{
			"buffer":0,
			"byteLength":3096,
			"byteOffset":205096,
			"target":34963
		},
		{
			"buffer":0,
			"byteLength":2664,
			"byteOffset":208192,
			"target":34962
		},
		{
			"buffer":0,
			"byteLength":1776,
			"byteOffset":210856,
			"target":34962
		},
		{
			"buffer":0,
			"byteLength":2664,
			"byteOffset":212632,
			"target":34962
		},
		{
			"buffer":0,
			"byteLength":2064,
			"byteOffset":215296,
			"target":34963
		},
		{
			"buffer":0,
			"byteLength":2448,
			"byteOffset":217360,
			"target":34962
		},
		{
			"buffer":0,
			"byteLength":1632,
			"byteOffset":219808,
			"target":34962
		},
		{
			"buffer":0,
			"byteLength":2448,
			"byteOffset":221440,
			"target":34962
		},
		{
			"buffer":0,
			"byteLength":1440,
			"byteOffset":223888,
			"target":34963
		},
		{
			"buffer":0,
			"byteLength":50076,
			"byteOffset":225328,
			"target":34962
		},
		{
			"buffer":0,
			"byteLength":33384,
			"byteOffset":275404,
			"target":34962
		},
		{
			"buffer":0,
			"byteLength":50076,
			"byteOffset":308788,
			"target":34962
		},
		{
			"buffer":0,
			"byteLength":36900,
			"byteOffset":358864,
			"target":34963
		},
		{
			"buffer":0,
			"byteLength":37368,
			"byteOffset":395764,
			"target":34962
		},
		{
			"buffer":0,
			"byteLength":24912,
			"byteOffset":433132,
			"target":34962
		},
		{
			"buffer":0,
			"byteLength":37368,
			"byteOffset":458044,
			"target":34962
		},
		{
			"buffer":0,
			"byteLength":26712,
			"byteOffset":495412,
			"target":34963
		},
		{
			"buffer":0,
			"byteLength":39360,
			"byteOffset":522124,
			"target":34962
		},
		{
			"buffer":0,
			"byteLength":26240,
			"byteOffset":561484,
			"target":34962
		},
		{
			"buffer":0,
			"byteLength":39360,
			"byteOffset":587724,
			"target":34962
		},
		{
			"buffer":0,
			"byteLength":27864,
			"byteOffset":627084,
			"target":34963
		}
	],
	"samplers":[
		{
			"magFilter":9729,
			"minFilter":9987
		}
	],
	"buffers":[
		{
			"byteLength":654948,
			"uri":"tempo.bin"
		}
	]
}
